<svg width="263.664453125px" height="122px" xmlns="http://www.w3.org/2000/svg" viewBox="118.16777343749999 14 263.664453125 122" style="background: rgba(0, 0, 0, 0);" preserveAspectRatio="xMidYMid"><defs><filter id="editing-hole" x="-100%" y="-100%" width="300%" height="300%"><feFlood flood-color="#000" result="black"></feFlood><feMorphology operator="dilate" radius="2" in="SourceGraphic" result="erode"></feMorphology><feGaussianBlur in="erode" stdDeviation="4" result="blur"></feGaussianBlur><feOffset in="blur" dx="2" dy="2" result="offset"></feOffset><feComposite operator="atop" in="offset" in2="black" result="merge"></feComposite><feComposite operator="in" in="merge" in2="SourceGraphic" result="inner-shadow"></feComposite></filter></defs><g filter="url(#editing-hole)"><g transform="translate(163.39102745056152, 97.39999961853027)"><path d="M29.18 1.28L29.18 1.28L29.18 1.28Q20.99 1.28 20.22-10.37L20.22-10.37L9.22-10.37L9.22-10.37Q7.94-7.42 7.04-4.86L7.04-4.86L5.38 0L-3.58 0L16.58-42.24L30.34-42.24L33.02-11.14L33.02-11.14Q33.66-4.42 36.22-2.43L36.22-2.43L36.22-2.43Q34.37 1.28 29.18 1.28ZM14.72-23.17L11.20-15.04L20.03-15.04L19.26-31.49L19.26-33.22L14.72-23.17ZM59.97-17.98L59.97-17.98L59.97-17.98Q62.27-22.08 62.27-26.24L62.27-26.24L62.27-26.24Q62.27-28.99 60.29-28.99L60.29-28.99L60.29-28.99Q58.75-28.99 57.15-26.37L57.15-26.37L57.15-26.37Q55.49-23.74 54.98-20.35L54.98-20.35L51.65 0L38.40 1.28L44.93-32.64L55.49-33.92L54.34-27.46L54.34-27.46Q57.47-33.92 64.51-33.92L64.51-33.92L64.51-33.92Q68.22-33.92 70.24-32L70.24-32L70.24-32Q72.26-30.08 72.26-26.14L72.26-26.14L72.26-26.14Q72.26-22.21 69.66-19.71L69.66-19.71L69.66-19.71Q67.07-17.22 62.66-17.22L62.66-17.22L62.66-17.22Q60.74-17.22 59.97-17.98ZM93.82-2.69L93.82-2.69L93.82-2.69Q90.75 1.28 83.14 1.28L83.14 1.28L83.14 1.28Q79.17 1.28 76.29-1.12L76.29-1.12L76.29-1.12Q73.41-3.52 73.41-6.98L73.41-6.98L73.41-6.98Q73.41-8.90 73.60-9.86L73.60-9.86L77.89-32.64L90.88-33.92L86.21-9.22L86.21-9.22Q85.95-7.81 85.95-6.98L85.95-6.98L85.95-6.98Q85.95-3.26 88.19-3.26L88.19-3.26L88.19-3.26Q90.69-3.26 92.48-6.66L92.48-6.66L92.48-6.66Q93.06-7.74 93.31-9.15L93.31-9.15L97.86-32.64L110.46-33.92L105.73-8.96L105.73-8.96Q105.54-8 105.54-6.98L105.54-6.98L105.54-6.98Q105.54-5.95 106.11-4.83L106.11-4.83L106.11-4.83Q106.69-3.71 108.54-3.46L108.54-3.46L108.54-3.46Q108.16-1.92 106.82-0.90L106.82-0.90L106.82-0.90Q104 1.28 100.96 1.28L100.96 1.28L100.96 1.28Q97.92 1.28 96.13 0.19L96.13 0.19L96.13 0.19Q94.34-0.90 93.82-2.69ZM114.94-6.40L114.94-6.40L114.94-6.40Q114.94-8.13 115.84-12.48L115.84-12.48L119.23-29.76L115.46-29.76L115.71-31.68L115.71-31.68Q123.39-33.98 130.82-39.62L130.82-39.62L133.89-39.62L132.35-32.64L137.34-32.64L136.77-29.76L131.84-29.76L128.58-12.48L128.58-12.48Q127.74-8.51 127.74-7.17L127.74-7.17L127.74-7.17Q127.74-4.10 130.43-3.46L130.43-3.46L130.43-3.46Q129.79-1.28 127.49 0L127.49 0L127.49 0Q125.18 1.28 121.92 1.28L121.92 1.28L121.92 1.28Q118.66 1.28 116.80-0.77L116.80-0.77L116.80-0.77Q114.94-2.82 114.94-6.40ZM161.98-29.57L161.98-29.57L161.98-29.57Q162.94-31.49 162.94-33.28L162.94-33.28L162.94-33.28Q162.94-35.07 162.75-36.06L162.75-36.06L162.75-36.06Q162.56-37.06 162.11-37.82L162.11-37.82L162.11-37.82Q161.15-39.49 159.23-39.49L159.23-39.49L159.23-39.49Q156.86-39.49 154.94-37.76L154.94-37.76L154.94-37.76Q152.90-35.97 152.90-33.15L152.90-33.15L152.90-33.15Q152.90-31.36 154.14-29.98L154.14-29.98L154.14-29.98Q155.39-28.61 157.31-27.33L157.31-27.33L157.31-27.33Q159.23-26.05 161.41-24.77L161.41-24.77L161.41-24.77Q163.58-23.49 165.50-21.95L165.50-21.95L165.50-21.95Q169.92-18.43 169.92-13.70L169.92-13.70L169.92-13.70Q169.92-10.50 168.22-7.78L168.22-7.78L168.22-7.78Q166.53-5.06 163.71-3.07L163.71-3.07L163.71-3.07Q157.57 1.28 149.44 1.28L149.44 1.28L149.44 1.28Q142.85 1.28 139.46-0.86L139.46-0.86L139.46-0.86Q136.06-3.01 136.06-6.27L136.06-6.27L136.06-6.27Q136.06-12.10 140.61-13.57L140.61-13.57L140.61-13.57Q141.89-14.02 143.84-14.02L143.84-14.02L143.84-14.02Q145.79-14.02 148.03-13.18L148.03-13.18L148.03-13.18Q147.01-10.56 147.01-8.19L147.01-8.19L147.01-8.19Q147.01-3.07 150.66-3.07L150.66-3.07L150.66-3.07Q153.02-3.07 154.98-4.80L154.98-4.80L154.98-4.80Q156.93-6.53 156.93-8.48L156.93-8.48L156.93-8.48Q156.93-10.43 155.68-11.84L155.68-11.84L155.68-11.84Q154.43-13.25 152.58-14.37L152.58-14.37L152.58-14.37Q150.72-15.49 148.58-16.58L148.58-16.58L148.58-16.58Q146.43-17.66 144.58-19.20L144.58-19.20L144.58-19.20Q140.22-22.72 140.22-28.35L140.22-28.35L140.22-28.35Q140.22-32 142.02-34.85L142.02-34.85L142.02-34.85Q143.81-37.70 146.69-39.62L146.69-39.62L146.69-39.62Q152.45-43.52 159.52-43.52L159.52-43.52L159.52-43.52Q166.59-43.52 170.02-41.41L170.02-41.41L170.02-41.41Q173.44-39.30 173.44-35.71L173.44-35.71L173.44-35.71Q173.44-32.58 171.01-30.59L171.01-30.59L171.01-30.59Q168.90-28.93 166.34-28.93L166.34-28.93L166.34-28.93Q163.78-28.93 161.98-29.57Z" fill="#ccc"></path></g></g><style>text {
  font-size: 64px;
  font-family: Arial Black;
  dominant-baseline: central;
  text-anchor: middle;
}</style></svg>